<mxfile host="app.diagrams.net" modified="2023-11-08T17:52:46.074Z" agent="Mozilla/5.0 (Windows NT 10.0; Win64; x64) AppleWebKit/537.36 (KHTML, like Gecko) Chrome/119.0.0.0 Safari/537.36 Edg/119.0.0.0" version="22.0.8" etag="I5pxf0arY9c49qzMca8U" type="github">
  <diagram name="Страница — 1" id="8B2tLV8M1Kd23LMJ9ygt">
    <mxGraphModel>
      <root>
        <mxCell id="0" />
        <mxCell id="1" parent="0" />
      </root>
    </mxGraphModel>
  </diagram>
</mxfile>
